# xmcd
#
# Track frame offsets:
#	150
#	27580
#	57008
#	88420
#	121683
#	145430
#	172940
#	196153
#	224390
#	252928
#	277220
#	302085
#
# Disc length: 4285 seconds
# Revision: 3
# Processed by: cddbd v1.5.2PL0 Copyright (c) Steve Scherf et al.
# Submitted via: dBpowerAMP V12.0
#
DISCID=b210bb0c
DTITLE=Hoang Oanh - Nhac vang tuyen chon
DYEAR=1997
DGENRE=Pre 75
TTITLE0=Nhung ngay tho mong
TTITLE1=Buon chi em oi
TTITLE2=Hai vi sao lac
TTITLE3=Chuyen tau hoang hon
TTITLE4=Xin tra lai em
TTITLE5=Biet dau tim
TTITLE6=Ai ra xu Hue
TTITLE7=Trang tan tren he pho
TTITLE8=Ha buon
TTITLE9=Giay phut ta tu
TTITLE10=Thu tim la vang
TTITLE11=Vuon thu
EXTD=
EXTT0=
EXTT1=
EXTT2=
EXTT3=
EXTT4=
EXTT5=
EXTT6=
EXTT7=
EXTT8=
EXTT9=
EXTT10=
EXTT11=
PLAYORDER=
